<?xml version="1.0" encoding="utf-8"?>
<!-- Generator: Adobe Illustrator 26.0.0, SVG Export Plug-In . SVG Version: 6.00 Build 0)  -->
<svg version="1.1" id="Layer_1" xmlns="http://www.w3.org/2000/svg" xmlns:xlink="http://www.w3.org/1999/xlink" x="0px"
	y="0px" viewBox="0 0 256 256" style="enable-background:new 0 0 256 256;" xml:space="preserve">
	<style type="text/css">
		.stcopied0 {
			fill: #77838F;
		}
	</style>
	<g>
		<path class="stcopied0" d="M127.78,0.22C57.36,0.34,0.1,57.8,0.22,128.22s57.58,127.69,128,127.57s127.69-57.58,127.57-128
		S198.2,0.1,127.78,0.22z M127.82,19.88c59.82-0.1,108.21,48.12,108.31,107.94c0.1,59.82-48.12,108.21-107.94,108.31
		C68.36,236.23,19.98,188,19.88,128.18S68,19.98,127.82,19.88z M179.91,81.68l-71.53,71.77l-32.46-32.27l-13.8,13.85l46.31,46.23
		l85.48-85.77L179.91,81.68z" />
	</g>
</svg>