<?xml version="1.0" encoding="utf-8"?>
<!-- Generator: Adobe Illustrator 26.0.0, SVG Export Plug-In . SVG Version: 6.00 Build 0)  -->
<svg version="1.1" id="Layer_1" xmlns="http://www.w3.org/2000/svg" xmlns:xlink="http://www.w3.org/1999/xlink" x="0px"
	y="0px" viewBox="0 0 256 256" style="enable-background:new 0 0 256 256;" xml:space="preserve">
	<style type="text/css">
		.stcopy0 {
			fill: #77838F;
		}
	</style>
	<g>
		<path class="stcopy0" d="M27.43,9.14C12.34,9.14,0,21.49,0,36.57v146.29c0,15.09,12.34,27.43,27.43,27.43h27.43v9.14
		c0,15.09,12.34,27.43,27.43,27.43h146.29c15.09,0,27.43-12.34,27.43-27.43V73.14c0-15.09-12.34-27.43-27.43-27.43h-27.43v-9.14
		c0-15.09-12.34-27.43-27.43-27.43H27.43z M27.43,27.43h146.29c5.05,0,9.14,4.09,9.14,9.14v146.29c0,5.05-4.09,9.14-9.14,9.14H27.43
		c-5.05,0-9.14-4.09-9.14-9.14V36.57C18.29,31.52,22.38,27.43,27.43,27.43z M201.14,64h27.43c5.05,0,9.14,4.09,9.14,9.14v146.29
		c0,5.05-4.09,9.14-9.14,9.14H82.29c-5.05,0-9.14-4.09-9.14-9.14v-9.14h100.57c15.09,0,27.43-12.34,27.43-27.43V64z" />
	</g>
</svg>