<?xml version="1.0" encoding="utf-8"?>
<!-- Generator: Adobe Illustrator 26.0.0, SVG Export Plug-In . SVG Version: 6.00 Build 0)  -->
<svg version="1.1" id="Layer_1" xmlns="http://www.w3.org/2000/svg" xmlns:xlink="http://www.w3.org/1999/xlink" x="0px" y="0px"
	 viewBox="0 0 256 256" style="enable-background:new 0 0 256 256;" xml:space="preserve">
<style type="text/css">
	.st0{fill:#03A9F4;}
	.st1{fill:#FFFFFF;}
</style>
<g>
	<circle class="st0" cx="128" cy="128" r="128"/>
	<path class="st1" d="M153.53,125.24h-14.74v65.74c0,2.22-1.8,4.02-4.02,4.02h-19.07c-2.22,0-4.02-1.8-4.02-4.02v-65.74H99.65
		c-2.22,0-4.02-1.8-4.02-4.02v-13.55c0-2.22,1.8-4.02,4.02-4.02h12.04V90.81C111.7,72.1,119.5,61,141.62,61h14.73
		c2.22,0,4.02,1.8,4.02,4.02v13.55c0,2.22-1.8,4.02-4.02,4.02h-8.32c-8.68,0-9.24,3.24-9.24,9.3v11.78h16.88
		c2.47,0,4.35,2.21,3.97,4.64l-2.14,13.55C157.19,123.8,155.51,125.24,153.53,125.24z"/>
</g>
</svg>
