<?xml version="1.0" encoding="utf-8"?>
<!-- Generator: Adobe Illustrator 26.0.0, SVG Export Plug-In . SVG Version: 6.00 Build 0)  -->
<svg version="1.1" id="Layer_1" xmlns="http://www.w3.org/2000/svg" xmlns:xlink="http://www.w3.org/1999/xlink" x="0px" y="0px"
	 viewBox="0 0 256 256" style="enable-background:new 0 0 256 256;" xml:space="preserve">
<style type="text/css">
	.st0{fill:#03A9F4;}
	.st1{fill:#FFFFFF;}
</style>
<g>
	<circle class="st0" cx="128" cy="128" r="128"/>
	<g>
		<path class="st1" d="M127.95,164.02c-19.91,0-36.12-16.2-36.12-36.12s16.21-36.12,36.12-36.12s36.12,16.2,36.12,36.12
			S147.86,164.02,127.95,164.02z M127.95,102.1c-14.23,0-25.8,11.57-25.8,25.8s11.57,25.8,25.8,25.8s25.8-11.57,25.8-25.8
			S142.17,102.1,127.95,102.1z"/>
		<circle class="st1" cx="166.65" cy="89.2" r="7.74"/>
		<path class="st1" d="M158.92,195H97.08C77.19,195,61,178.82,61,158.92V97.08C61,77.18,77.19,61,97.08,61h61.85
			C178.81,61,195,77.18,195,97.08v61.85C195,178.82,178.81,195,158.92,195z M71.16,96.96v62.08c0,14.25,11.55,25.8,25.8,25.8h62.08
			c14.25,0,25.8-11.55,25.8-25.8V96.96c0-14.25-11.55-25.8-25.8-25.8H96.96C82.71,71.16,71.16,82.71,71.16,96.96z"/>
	</g>
</g>
</svg>
