<?xml version="1.0" encoding="utf-8"?>
<svg version="1.1" id="Layer_1" xmlns="http://www.w3.org/2000/svg" xmlns:xlink="http://www.w3.org/1999/xlink" x="0px"
	y="0px" viewBox="0 0 256 256" style="enable-background:new 0 0 256 256;" xml:space="preserve">
	<style type="text/css">
		.st0 {
			fill: #03A9F4;
		}

		.st1 {
			fill: #FFFFFF;
		}

		.st2 {
			fill: #444B54;
		}

		.st3 {
			fill: #D0D4D8;
		}

		.st4 {
			fill: #FF5576;
		}
	</style>
	<g>
		<circle class="st0" cx="128" cy="128" r="128" />
		<g>
			<path class="st1" d="M127.35,189.99c31.07-18.42,50.12-51.24,50.12-87.83V83.24L127.35,64.7L77.23,83.24v18.92
			C77.23,138.74,96.28,171.57,127.35,189.99" />
			<path class="st2" d="M127.35,193.75c-0.63,0-1.25-0.13-1.88-0.5c-32.58-19.29-52-53.37-52-91.09V83.24c0-1.63,1-3.01,2.51-3.51
			l50.12-18.54c0.88-0.25,1.75-0.25,2.63,0l49.99,18.54c1.5,0.5,2.51,2,2.51,3.51v19.18c0,9.61-1.36,19.23-3.94,28.47
			c-0.49,1.97-2.59,3.08-4.56,2.59s-3.08-2.59-2.59-4.56c2.46-8.5,3.57-17.38,3.57-26.37V86.01l-46.3-17.31L80.99,85.88v16.28
			c0,35.08,18.04,66.66,48.24,84.57c1.75,1,2.38,3.38,1.38,5.14C129.86,193.12,128.6,193.75,127.35,193.75z" />
			<path class="st2"
				d="M127.35,193.75c-1.25,0-2.51-0.63-3.26-1.88c-1-1.75-0.5-4.13,1.38-5.14c4.01-2.38,7.89-5.01,11.53-7.89
			c1.63-1.25,4.01-1,5.26,0.63s1,4.01-0.63,5.26c-3.88,3.13-8.02,6.01-12.4,8.52C128.6,193.62,127.98,193.75,127.35,193.75z" />
			<path class="st3" d="M127.35,175.7c-0.75,0-1.63-0.25-2.26-0.75c-19.92-14.66-32.58-36.33-35.83-60.77
			c-0.25-2,1.13-3.88,3.26-4.26c2-0.25,3.88,1.13,4.26,3.26c2.88,21.42,13.66,40.47,30.57,53.88
			c19.92-15.79,31.32-39.34,31.32-65.03v-5.76l-31.32-11.53L93.52,97.27c-2,0.75-4.13-0.25-4.89-2.26c-0.75-2,0.25-4.13,2.26-4.89
			l35.21-12.91c0.88-0.25,1.75-0.25,2.63,0l35.08,13.03c1.5,0.5,2.51,2,2.38,3.51v8.39c0.13,29.07-13.16,55.63-36.46,72.79
			C128.98,175.45,128.1,175.7,127.35,175.7z" />
			<g>
				<path class="st3" d="M127.35,80.73v91.21c22.18-16.41,35.08-41.85,35.08-69.79v-8.39L127.35,80.73z" />
			</g>
			<g>
				<path class="st4" d="M159.75,152.22c-9.79,9.79-9.79,25.65,0,35.44c9.79,9.79,25.65,9.79,35.44,0c9.79-9.79,9.79-25.65,0-35.44
				C185.4,142.44,169.53,142.44,159.75,152.22z" />
				<path class="st1" d="M173.97,179.33L173.97,179.33c-0.65,0-1.3-0.24-1.71-0.73l-6.91-6.91c-0.98-0.98-0.98-2.52,0-3.41
				c0.98-0.98,2.52-0.98,3.41,0l5.12,5.2l12.27-12.19c0.98-0.98,2.52-0.98,3.41,0c0.98,0.98,0.98,2.52,0,3.41l-13.9,13.9
				C175.27,179.08,174.62,179.33,173.97,179.33z" />
			</g>
		</g>
	</g>
</svg>