<?xml version="1.0" encoding="utf-8"?>
<svg version="1.1" id="Layer_1" xmlns="http://www.w3.org/2000/svg"
	xmlns:xlink="http://www.w3.org/1999/xlink" x="0px" y="0px" viewBox="0 0 256 256"
	style="enable-background:new 0 0 256 256;" xml:space="preserve">
	<style type="text/css">
		.st0 {
			fill: #03A9F4;
		}

		.st1 {
			fill: #FFFFFF;
		}
	</style>
	<g>
		<circle class="st0" cx="128" cy="128" r="128" />
		<g>
			<g>
				<path class="st1" d="M189.19,82.55l-18.27,95.2l-0.09,0.24c0,0-0.86,2.29-3.04,4.06c-2.18,1.78-6.11,2.85-10.46,0.92l-0.31-0.14
				l-24.86-19.38l-15.32,14.21l-0.1,0.08c0,0-2.36,1.85-5.22,0.85c-0.11-0.02-0.17-0.02-0.26-0.05c-0.05-0.01-0.09-0.05-0.14-0.07
				l0.07,0.02c-0.02-0.01-0.05-0.01-0.07-0.02c-0.01,0-0.01,0-0.01,0c0,0,0,0-0.01,0c-0.29-0.12-0.45-0.43-0.39-0.74l6-27.53v-0.02
				c0.05-0.38,0.17-0.75,0.36-1.08c0.05-0.08,0.1-0.16,0.15-0.24c0.05-0.07,0.1-0.14,0.15-0.2l0.02-0.02l34.12-40.76l-48.19,32.62
				c-2.45,1.59-5.66,0.96-5.66,0.96l-24.93-8.53l-0.02-0.01c0,0-5.59-1.53-6.25-6.92c-0.19-1.53,0.31-2.98,1-4.01
				c0.69-1.02,1.53-1.73,2.31-2.27c1.27-0.88,2.52-1.39,2.95-1.55c0,0,0.01,0,0.01,0c1.19-0.51,26.1-11.19,51.44-22.05
				c12.98-5.56,26.08-11.17,36.16-15.48c10.08-4.31,16.9-7.22,18.08-7.7c1.2-0.48,2.52-0.86,3.89-0.92c1.36-0.06,2.77,0.2,4.11,1
				c1.34,0.8,2.42,2.25,2.86,3.91C189.72,78.59,189.65,80.43,189.19,82.55z" />
			</g>
		</g>
	</g>
</svg>