<?xml version="1.0" encoding="utf-8"?>
<!-- Generator: Adobe Illustrator 26.0.0, SVG Export Plug-In . SVG Version: 6.00 Build 0)  -->
<svg version="1.1" id="Layer_1" xmlns="http://www.w3.org/2000/svg" xmlns:xlink="http://www.w3.org/1999/xlink" x="0px"
	y="0px" viewBox="0 0 256 256" style="enable-background:new 0 0 256 256;" xml:space="preserve">
	<style type="text/css">
		.st00 {
			fill: #12161C;
		}

		.st01 {
			fill: #F0B90B;
		}
	</style>
	<g>
		<path id="Path_1_00000078747388475548930940000005160127801212295827_" class="st00" d="M53.61,122.59c0-5.97,4.84-10.81,10.81-10.8
		c0.02,0-0.79,0-0.77,0L82,111.84c6.09,0,11.03,4.9,11.03,10.95l0,0v68.87c2.07-0.61,4.71-1.26,7.62-1.94
		c4.15-0.97,7.08-4.65,7.09-8.88V95.29c0-5.98,4.85-10.82,10.82-10.82h18.27c5.98,0,10.82,4.85,10.82,10.82v79.21
		c0,0,4.6-1.85,9.09-3.72c3.4-1.43,5.62-4.73,5.62-8.39V67.98c0-5.98,4.84-10.82,10.82-10.82h16.24
		c5.94,0.01,10.75,4.85,10.75,10.82v76.93c15.55-11.33,31.31-24.96,43.81-41.35c3.69-4.83,4.72-11.2,2.75-16.96
		C223.76,20.14,151.57-15,85.49,8.1c-66.08,23.1-101.03,95.7-78.06,162.15c2.59,7.5,5.88,14.74,9.81,21.62
		c3.12,5.42,9.08,8.52,15.28,7.96c3.39-0.3,7.62-0.72,12.64-1.32c4.52-0.52,7.94-4.37,7.95-8.95v-67.28L53.61,122.59z" />
		<path id="Path_2_00000176007678179009481340000012135908908339330947_" class="st01" d="M53.23,230.61
		c56.91,41.4,136.61,28.83,178.01-28.08c15.85-21.79,24.39-48.04,24.38-74.99c0-2.94-0.14-5.84-0.33-8.72
		C208.73,188.26,122.76,220.72,53.23,230.61L53.23,230.61z" />
	</g>
</svg>