<?xml version="1.0" encoding="utf-8"?>
<!-- Generator: Adobe Illustrator 26.0.0, SVG Export Plug-In . SVG Version: 6.00 Build 0)  -->
<svg version="1.1" id="Layer_1" xmlns="http://www.w3.org/2000/svg" xmlns:xlink="http://www.w3.org/1999/xlink" x="0px" y="0px"
	 viewBox="0 0 256 256" style="enable-background:new 0 0 256 256;" xml:space="preserve">
<style type="text/css">
	.st0{fill:#03A9F4;}
	.st1{fill:#FFFFFF;}
</style>
<g>
	<circle class="st0" cx="128" cy="128" r="128"/>
	<g>
		<path class="st1" d="M197.52,85.24c-5.11,2.26-10.61,3.77-16.4,4.49c5.89-3.5,10.43-9.08,12.56-15.67
			c-5.52,3.23-11.62,5.61-18.12,6.86c-5.19-5.5-12.59-8.92-20.8-8.92c-15.76,0-28.53,12.66-28.53,28.27c0,2.21,0.26,4.36,0.75,6.45
			c-23.71-1.19-44.73-12.46-58.8-29.56c-2.47,4.18-3.86,9.07-3.86,14.24c0,9.81,5.02,18.45,12.69,23.54
			c-4.68-0.14-9.08-1.44-12.93-3.53c0,0.08,0,0.21,0,0.33c0,13.71,9.84,25.13,22.88,27.73c-2.38,0.65-4.9,1.02-7.5,1.02
			c-1.84,0-3.64-0.21-5.38-0.52c3.63,11.21,14.16,19.4,26.64,19.64c-9.76,7.57-22.06,12.1-35.43,12.1c-2.31,0-4.57-0.13-6.8-0.4
			c12.63,8,27.63,12.69,43.73,12.69c52.47,0,81.17-43.09,81.17-80.46c0-1.22-0.04-2.44-0.1-3.65
			C188.88,95.93,193.71,90.94,197.52,85.24"/>
	</g>
</g>
</svg>
