<?xml version="1.0" encoding="utf-8"?>
<!-- Generator: Adobe Illustrator 26.0.0, SVG Export Plug-In . SVG Version: 6.00 Build 0)  -->
<svg version="1.1" id="Layer_1" xmlns="http://www.w3.org/2000/svg" xmlns:xlink="http://www.w3.org/1999/xlink" x="0px" y="0px"
	 viewBox="0 0 256 256" style="enable-background:new 0 0 256 256;" xml:space="preserve">
<style type="text/css">
	.st0{fill:#03A9F4;}
	.st1{fill:#F8F8F8;}
	.st2{fill:#060606;}
	.st3{fill:#EEF2F2;}
	.st4{fill:#010101;}
	.st5{fill:#77CFA8;}
	.st6{fill:#FFFFFF;}
	.st7{fill:#4788C7;}
	.st8{fill:#98CCFD;}
	.st9{fill:#DFF0FE;}
</style>
<g>
	<circle class="st0" cx="128" cy="128" r="128"/>
	<g>
		<path d="M75.62,125.68c-2-0.48-2.62-1.23-2.62-3.27c0-14.87,0-29.74,0-44.6c0-2.34,0.9-3.23,3.25-3.23
			c4.23-0.01,8.46-0.04,12.69,0.02c1.04,0.02,1.41-0.17,1.38-1.32c-0.09-2.92,0.03-5.84-0.06-8.76c-0.05-1.6,0.44-2.78,1.86-3.54
			c29.68,0,59.35,0,89.03,0c1.39,0.76,1.86,1.91,1.86,3.51c-0.03,37.83-0.03,75.65-0.03,113.48c0,2.62-0.83,3.47-3.41,3.47
			c-4.23,0-8.47,0.04-12.7-0.03c-1.01-0.02-1.22,0.28-1.2,1.23c0.06,3.1,0.03,6.19,0.02,9.29c-0.01,2.14-0.98,3.1-3.14,3.1
			c-28.8,0-57.6,0-86.39,0c-2.22,0-3.15-0.95-3.15-3.21c0-14.88,0-29.75,0-44.63c0-2.06,0.65-2.85,2.62-3.25
			c1.97,0.4,2.62,1.19,2.62,3.25c0,13.74,0.02,27.49-0.03,41.23c0,1.14,0.25,1.41,1.4,1.41c26.49-0.04,52.98-0.04,79.46,0
			c1.14,0,1.41-0.26,1.41-1.41c-0.04-35.74-0.03-71.47,0-107.21c0-1.11-0.2-1.43-1.39-1.43c-26.49,0.04-52.98,0.04-79.46,0
			c-1.12,0-1.43,0.22-1.42,1.39c0.05,13.74,0.03,27.49,0.03,41.23C78.24,124.45,77.62,125.2,75.62,125.68z M177.74,121.21
			c0-17.93-0.01-35.86,0.02-53.79c0-0.93-0.15-1.25-1.18-1.23c-4.14,0.07-8.29,0.03-12.43,0.03c-22.34,0-44.68,0.02-67.01-0.04
			c-1.41,0-1.73,0.4-1.64,1.71c0.12,1.74,0.11,3.49,0,5.23c-0.07,1.19,0.28,1.48,1.48,1.48c21.6-0.04,43.19-0.03,64.79-0.03
			c3.31,0,3.93,0.63,3.93,4c0,27.7,0,55.4,0,83.11c0,4.49,0.03,8.99-0.02,13.48c-0.01,0.88,0.25,1.07,1.09,1.06
			c3.23-0.05,6.46-0.08,9.68,0.01c1.12,0.03,1.33-0.3,1.32-1.36C177.73,156.98,177.74,139.09,177.74,121.21z"/>
		<path class="st1" d="M75.62,125.68c2-0.48,2.62-1.23,2.62-3.27c0-13.74,0.02-27.49-0.03-41.23c0-1.17,0.3-1.4,1.42-1.39
			c26.49,0.03,52.98,0.04,79.46,0c1.19,0,1.39,0.32,1.39,1.43c-0.03,35.74-0.03,71.47,0,107.21c0,1.15-0.26,1.41-1.41,1.41
			c-26.49-0.04-52.98-0.04-79.46,0c-1.16,0-1.41-0.27-1.4-1.41c0.04-13.74,0.03-27.49,0.03-41.23c0-2.06-0.65-2.85-2.62-3.25
			c0-2.15,0-4.31,0-6.46c1.79-0.42,2.65-1.32,2.61-2.73c-0.03-1.38-0.91-2.25-2.61-2.58C75.62,129.99,75.62,127.83,75.62,125.68z
			 M119.08,92.91c-9.16,0-18.32,0-27.48,0c-2.52,0-3.39,0.87-3.39,3.37c0,14.48,0,28.96,0,43.45c0,2.58,0.87,3.46,3.45,3.46
			c18.32,0,36.64,0,54.97,0c2.51,0,3.38-0.87,3.38-3.38c0-14.53,0-29.05,0-43.58c0-2.43-0.88-3.31-3.3-3.31
			C137.49,92.9,128.28,92.91,119.08,92.91z M119.23,156.79c-6.24,0-12.47,0-18.71,0c-3.23,0-6.45-0.02-9.68,0.02
			c-1.5,0.02-2.59,1.14-2.63,2.54c-0.03,1.38,1.05,2.54,2.51,2.67c0.35,0.03,0.7,0.01,1.05,0.01c18.23,0,36.46,0,54.69,0
			c0.39,0,0.79,0.02,1.18-0.02c1.4-0.17,2.39-1.3,2.35-2.67c-0.04-1.38-1.06-2.42-2.5-2.53c-0.39-0.03-0.78-0.01-1.18-0.01
			C137.28,156.79,128.26,156.79,119.23,156.79z M119.11,171.45c-5.41,0-10.82,0-16.22,0c-3.97,0-7.94-0.01-11.91,0.01
			c-1.6,0.01-2.73,1.08-2.77,2.53c-0.05,1.48,1.13,2.63,2.76,2.7c0.26,0.01,0.52,0,0.78,0c18.23,0,36.46,0,54.69,0
			c0.44,0,0.88,0.04,1.3-0.04c1.24-0.24,2.05-0.98,2.21-2.25c0.15-1.2-0.37-2.1-1.45-2.68c-0.57-0.3-1.18-0.26-1.79-0.26
			C137.52,171.45,128.31,171.45,119.11,171.45z"/>
		<path class="st2" d="M75.62,132.14c1.7,0.34,2.58,1.21,2.61,2.58c0.03,1.41-0.82,2.31-2.61,2.73c-1.79-0.42-2.65-1.32-2.61-2.74
			C73.04,133.35,73.91,132.48,75.62,132.14z"/>
		<path class="st3" d="M177.74,121.21c0,17.89-0.01,35.77,0.03,53.66c0,1.06-0.2,1.39-1.32,1.36c-3.23-0.09-6.46-0.06-9.68-0.01
			c-0.83,0.01-1.1-0.18-1.09-1.06c0.05-4.49,0.02-8.99,0.02-13.48c0-27.7,0-55.4,0-83.11c0-3.37-0.62-4-3.93-4
			c-21.6,0-43.19-0.01-64.79,0.03c-1.19,0-1.55-0.29-1.48-1.48c0.11-1.74,0.12-3.49,0-5.23c-0.09-1.31,0.23-1.71,1.64-1.71
			c22.34,0.05,44.68,0.04,67.01,0.04c4.14,0,8.29,0.04,12.43-0.03c1.03-0.02,1.18,0.3,1.18,1.23
			C177.73,85.35,177.74,103.28,177.74,121.21z"/>
		<path class="st4" d="M119.08,92.91c9.2,0,18.41,0,27.61,0c2.42,0,3.3,0.88,3.3,3.31c0,14.53,0,29.05,0,43.58
			c0,2.51-0.87,3.38-3.38,3.38c-18.32,0-36.64,0-54.97,0c-2.58,0-3.45-0.87-3.45-3.46c0-14.48,0-28.96,0-43.45
			c0-2.5,0.88-3.37,3.39-3.37C100.75,92.91,109.92,92.91,119.08,92.91z M119.12,98.14c-8.12,0-16.23,0.02-24.35-0.03
			c-1.08-0.01-1.37,0.25-1.36,1.35c0.04,12.39,0.04,24.78,0,37.17c0,1.14,0.35,1.33,1.39,1.32c16.23-0.03,32.46-0.03,48.69,0
			c1.03,0,1.29-0.26,1.29-1.29c-0.04-12.43-0.04-24.87,0-37.3c0-1.09-0.35-1.25-1.32-1.25C135.35,98.16,127.23,98.14,119.12,98.14z"
			/>
		<path class="st4" d="M119.23,156.79c9.03,0,18.06,0,27.08,0c0.39,0,0.79-0.02,1.18,0.01c1.43,0.1,2.46,1.15,2.5,2.53
			c0.04,1.37-0.95,2.5-2.35,2.67c-0.39,0.05-0.78,0.02-1.18,0.02c-18.23,0-36.46,0-54.69,0c-0.35,0-0.7,0.02-1.05-0.01
			c-1.46-0.13-2.55-1.29-2.51-2.67c0.04-1.4,1.13-2.52,2.63-2.54c3.23-0.04,6.45-0.02,9.68-0.02
			C106.76,156.79,112.99,156.79,119.23,156.79z"/>
		<path class="st4" d="M119.11,171.45c9.2,0,18.4,0,27.61,0c0.61,0,1.22-0.04,1.79,0.26c1.08,0.58,1.61,1.48,1.45,2.68
			c-0.16,1.27-0.98,2.01-2.21,2.25c-0.42,0.08-0.87,0.04-1.3,0.04c-18.23,0-36.46,0-54.69,0c-0.26,0-0.52,0.01-0.78,0
			c-1.63-0.07-2.81-1.22-2.76-2.7c0.04-1.45,1.18-2.52,2.77-2.53c3.97-0.02,7.94-0.01,11.91-0.01
			C108.3,171.45,113.7,171.45,119.11,171.45z"/>
		<path class="st5" d="M144.78,136.67c0,1.03-0.26,1.29-1.29,1.29c-16.23-0.03-32.46-0.03-48.69,0c-1.04,0-1.4-0.19-1.39-1.32
			c0.05-12.39,0.05-24.78,0-37.17c0-1.1,0.28-1.35,1.36-1.35c8.11,0.05,16.23,0.03,24.35,0.03c8.11,0,16.23,0.01,24.34-0.02
			c0.97,0,1.32,0.16,1.32,1.25C144.74,111.81,144.74,124.24,144.78,136.67z"/>
		<g>
			<path class="st6" d="M119.09,129.66c-9.07,0-16.73-9.87-18.02-11.62c1.29-1.75,8.95-11.62,18.02-11.62
				c9.07,0,16.73,9.87,18.02,11.62C135.83,119.79,128.16,129.66,119.09,129.66z"/>
			<path class="st7" d="M119.09,106.88c8.46,0,15.72,8.88,17.44,11.16c-1.72,2.28-8.98,11.16-17.44,11.16s-15.72-8.88-17.44-11.16
				C103.38,115.76,110.64,106.88,119.09,106.88 M119.09,105.95c-10.27,0-18.59,12.08-18.59,12.08s8.32,12.08,18.59,12.08
				s18.59-12.08,18.59-12.08S129.36,105.95,119.09,105.95L119.09,105.95z"/>
			<path class="st8" d="M119.09,108.74c-5.13,0-9.3,4.16-9.3,9.3s4.16,9.3,9.3,9.3s9.3-4.16,9.3-9.3S124.23,108.74,119.09,108.74z"
				/>
			<path class="st7" d="M119.09,114.32c-2.05,0-3.72,1.66-3.72,3.72c0,2.05,1.66,3.72,3.72,3.72c2.05,0,3.72-1.66,3.72-3.72
				C122.81,115.99,121.15,114.32,119.09,114.32z"/>
			<path class="st9" d="M121.88,112.46c-1.03,0-1.86,0.83-1.86,1.86s0.83,1.86,1.86,1.86s1.86-0.83,1.86-1.86
				S122.91,112.46,121.88,112.46z"/>
		</g>
	</g>
</g>
</svg>
